# xmcd CD database file
#
# Track frame offsets:
#	150
#	13579
#	27813
#	42301
#	58554
#	73649
#	88296
#	103701
#	118739
#	132151
#	145600
#	158940
#	172884
#	186924
#	201021
#	215058
#	228988
#	242657
#	256647
#	270533
#	285079
#	298384
#	311611
#	324756
#
# Disc length: 4515 seconds
#
# Revision: 0
# Processed by: cddbd v1.5.2PL0 Copyright (c) Steve Scherf et al.
# Submitted via: NeoAudio 9.9.9
#
DISCID=5511a118
DTITLE=Big Bill Broonzy - Masters OF Jazz - Vol. 7 - 1935
DYEAR=2000
DGENRE=Blues
TTITLE0=Midnight Special
TTITLE1=The Dozen
TTITLE2=Don't Tear My Cloths
TTITLE3=The Southern Blues
TTITLE4=Good Jelly
TTITLE5=Monkey Man Blues
TTITLE6=Ocean Blues
TTITLE7=Y.M.V. Blues
TTITLE8=C And A Blues
TTITLE9=Something Good
TTITLE10=Mama Don't Allow No.1
TTITLE11=Jesse James Blues
TTITLE12=Can't You Trust Me No More
TTITLE13=Where Was You Last Night
TTITLE14=I Done Lost My Baby
TTITLE15=I'm Needing Someone
TTITLE16=Who Pumped The Wind In My Doughnut
TTITLE17=Mama Dont Allow No.2
TTITLE18=You May Need My Help Someday
TTITLE19=Rising Sun Shines On
TTITLE20=Tell Me What Kind On Man Jesus Is
TTITLE21=I Ain't No Stranger Now
TTITLE22=Early In The Morning
TTITLE23=Harmonica Stomp
EXTD=YEAR: 2000
EXTT0=
EXTT1=
EXTT2=
EXTT3=
EXTT4=
EXTT5=
EXTT6=
EXTT7=
EXTT8=
EXTT9=
EXTT10=
EXTT11=
EXTT12=
EXTT13=
EXTT14=
EXTT15=
EXTT16=
EXTT17=
EXTT18=
EXTT19=
EXTT20=
EXTT21=
EXTT22=
EXTT23=
PLAYORDER=
